<?xml version="1.0" encoding="UTF-8" standalone="no"?>
<!-- Created with Inkscape (http://www.inkscape.org/) -->

<svg
   xmlns:dc="http://purl.org/dc/elements/1.1/"
   xmlns:cc="http://creativecommons.org/ns#"
   xmlns:rdf="http://www.w3.org/1999/02/22-rdf-syntax-ns#"
   xmlns:svg="http://www.w3.org/2000/svg"
   xmlns="http://www.w3.org/2000/svg"
   xmlns:xlink="http://www.w3.org/1999/xlink"
   xmlns:sodipodi="http://sodipodi.sourceforge.net/DTD/sodipodi-0.dtd"
   xmlns:inkscape="http://www.inkscape.org/namespaces/inkscape"
   width="366.25"
   height="285"
   id="svg17261"
   version="1.1"
   inkscape:version="0.48.4 r9939"
   sodipodi:docname="New document 10">
  <defs
     id="defs17263" />
  <sodipodi:namedview
     id="base"
     pagecolor="#ffffff"
     bordercolor="#666666"
     borderopacity="1.0"
     inkscape:pageopacity="0.0"
     inkscape:pageshadow="2"
     inkscape:zoom="0.98994949"
     inkscape:cx="266.16114"
     inkscape:cy="67.468622"
     inkscape:document-units="px"
     inkscape:current-layer="layer1"
     showgrid="false"
     fit-margin-top="0"
     fit-margin-left="0"
     fit-margin-right="0"
     fit-margin-bottom="0"
     inkscape:window-width="1366"
     inkscape:window-height="744"
     inkscape:window-x="0"
     inkscape:window-y="24"
     inkscape:window-maximized="1" />
  <metadata
     id="metadata17266">
    <rdf:RDF>
      <cc:Work
         rdf:about="">
        <dc:format>image/svg+xml</dc:format>
        <dc:type
           rdf:resource="http://purl.org/dc/dcmitype/StillImage" />
        <dc:title></dc:title>
      </cc:Work>
    </rdf:RDF>
  </metadata>
  <g
     inkscape:label="Layer 1"
     inkscape:groupmode="layer"
     id="layer1"
     transform="translate(0.2873925,0.2852575)">
    <g
       transform="matrix(1.25,0,0,1.25,-194.67948,-411.24077)"
       id="g16736">
      <path
         style="fill:#ffffff;fill-opacity:1;fill-rule:nonzero;stroke:none"
         d="m 155.51367,328.76441 293,0 0,228 -293,0 z m 0,0"
         id="path11855"
         inkscape:connector-curvature="0" />
      <path
         style="fill:none;stroke:#211e1e;stroke-width:0.5;stroke-linecap:butt;stroke-linejoin:miter;stroke-miterlimit:4;stroke-opacity:1"
         d="m 228.2832,339.3191 0,169.51172 205.23828,0"
         id="path11857"
         inkscape:connector-curvature="0" />
      <g
         transform="translate(-20.486333,46.557376)"
         style="fill:#211e1e;fill-opacity:1"
         id="g11859">
        <use
           xlink:href="#glyph13-1"
           x="338.20099"
           y="481.60873"
           id="use11861"
           width="595.27557"
           height="841.88977" />
        <use
           xlink:href="#glyph13-2"
           x="344.42499"
           y="481.60873"
           id="use11863"
           width="595.27557"
           height="841.88977" />
        <use
           xlink:href="#glyph13-3"
           x="349.31299"
           y="481.60873"
           id="use11865"
           width="595.27557"
           height="841.88977" />
        <use
           xlink:href="#glyph13-4"
           x="352.129"
           y="481.60873"
           id="use11867"
           width="595.27557"
           height="841.88977" />
        <use
           xlink:href="#glyph13-2"
           x="356.87299"
           y="481.60873"
           id="use11869"
           width="595.27557"
           height="841.88977" />
        <use
           xlink:href="#glyph13-3"
           x="361.76099"
           y="481.60873"
           id="use11871"
           width="595.27557"
           height="841.88977" />
      </g>
      <g
         transform="translate(-20.486333,46.557376)"
         style="fill:#211e1e;fill-opacity:1"
         id="g11873">
        <use
           xlink:href="#glyph14-1"
           x="232.0498"
           y="395.36865"
           id="use11875"
           width="595.27557"
           height="841.88977" />
        <use
           xlink:href="#glyph14-2"
           x="232.0498"
           y="390.91904"
           id="use11877"
           width="595.27557"
           height="841.88977" />
      </g>
      <g
         transform="translate(-20.486333,46.557376)"
         style="fill:#211e1e;fill-opacity:1"
         id="g11879">
        <use
           xlink:href="#glyph14-3"
           x="232.0498"
           y="386.32864"
           id="use11881"
           width="595.27557"
           height="841.88977" />
        <use
           xlink:href="#glyph14-4"
           x="232.0498"
           y="383.51263"
           id="use11883"
           width="595.27557"
           height="841.88977" />
        <use
           xlink:href="#glyph14-5"
           x="232.0498"
           y="379.21664"
           id="use11885"
           width="595.27557"
           height="841.88977" />
        <use
           xlink:href="#glyph14-6"
           x="232.0498"
           y="376.84863"
           id="use11887"
           width="595.27557"
           height="841.88977" />
        <use
           xlink:href="#glyph14-7"
           x="232.0498"
           y="374.62463"
           id="use11889"
           width="595.27557"
           height="841.88977" />
        <use
           xlink:href="#glyph14-2"
           x="232.0498"
           y="370.62463"
           id="use11891"
           width="595.27557"
           height="841.88977" />
        <use
           xlink:href="#glyph14-8"
           x="232.0498"
           y="366.03262"
           id="use11893"
           width="595.27557"
           height="841.88977" />
        <use
           xlink:href="#glyph14-3"
           x="232.0498"
           y="362.48065"
           id="use11895"
           width="595.27557"
           height="841.88977" />
      </g>
      <g
         transform="translate(-20.486333,46.557376)"
         style="fill:#211e1e;fill-opacity:1"
         id="g11897">
        <use
           xlink:href="#glyph15-1"
           x="243.69341"
           y="289.56573"
           id="use11899"
           width="595.27557"
           height="841.88977" />
        <use
           xlink:href="#glyph15-2"
           x="248.8774"
           y="289.56573"
           id="use11901"
           width="595.27557"
           height="841.88977" />
      </g>
      <g
         transform="translate(-20.486333,46.557376)"
         style="fill:#211e1e;fill-opacity:1"
         id="g11903">
        <use
           xlink:href="#glyph16-1"
           x="251.5972"
           y="292.56573"
           id="use11905"
           width="595.27557"
           height="841.88977" />
        <use
           xlink:href="#glyph16-2"
           x="253.4872"
           y="292.56573"
           id="use11907"
           width="595.27557"
           height="841.88977" />
      </g>
      <g
         transform="translate(-20.486333,46.557376)"
         style="fill:#211e1e;fill-opacity:1"
         id="g11909">
        <use
           xlink:href="#glyph15-3"
           x="456.20499"
           y="465.70273"
           id="use11911"
           width="595.27557"
           height="841.88977" />
        <use
           xlink:href="#glyph15-2"
           x="461.54099"
           y="465.70273"
           id="use11913"
           width="595.27557"
           height="841.88977" />
      </g>
      <g
         transform="translate(-20.486333,46.557376)"
         style="fill:#211e1e;fill-opacity:1"
         id="g11915">
        <use
           xlink:href="#glyph16-1"
           x="465.061"
           y="468.70273"
           id="use11917"
           width="595.27557"
           height="841.88977" />
        <use
           xlink:href="#glyph16-2"
           x="466.95099"
           y="468.70273"
           id="use11919"
           width="595.27557"
           height="841.88977" />
      </g>
      <g
         transform="translate(-20.486333,46.557376)"
         style="fill:#211e1e;fill-opacity:1"
         id="g11921">
        <use
           xlink:href="#glyph17-1"
           x="242.437"
           y="380.13675"
           id="use11923"
           width="595.27557"
           height="841.88977" />
      </g>
      <g
         transform="translate(-20.486333,46.557376)"
         style="fill:#211e1e;fill-opacity:1"
         id="g11925">
        <use
           xlink:href="#glyph18-1"
           x="236.743"
           y="378.13803"
           id="use11927"
           width="595.27557"
           height="841.88977" />
      </g>
      <g
         transform="translate(-20.486333,46.557376)"
         style="fill:#211e1e;fill-opacity:1"
         id="g11929">
        <use
           xlink:href="#glyph17-2"
           x="242.4355"
           y="433.88065"
           id="use11931"
           width="595.27557"
           height="841.88977" />
      </g>
      <g
         transform="translate(-20.486333,46.557376)"
         style="fill:#211e1e;fill-opacity:1"
         id="g11933">
        <use
           xlink:href="#glyph18-1"
           x="236.743"
           y="431.88065"
           id="use11935"
           width="595.27557"
           height="841.88977" />
      </g>
      <g
         transform="translate(-20.486333,46.557376)"
         style="fill:#211e1e;fill-opacity:1"
         id="g11937">
        <use
           xlink:href="#glyph15-4"
           x="381.34201"
           y="428.27463"
           id="use11939"
           width="595.27557"
           height="841.88977" />
      </g>
      <g
         transform="translate(-20.486333,46.557376)"
         style="fill:#211e1e;fill-opacity:1"
         id="g11941">
        <use
           xlink:href="#glyph13-5"
           x="386.974"
           y="428.27463"
           id="use11943"
           width="595.27557"
           height="841.88977" />
      </g>
      <g
         transform="translate(-20.486333,46.557376)"
         style="fill:#211e1e;fill-opacity:1"
         id="g11945">
        <use
           xlink:href="#glyph15-1"
           x="390.57401"
           y="428.27463"
           id="use11947"
           width="595.27557"
           height="841.88977" />
      </g>
      <g
         transform="translate(-20.486333,46.557376)"
         style="fill:#211e1e;fill-opacity:1"
         id="g11949">
        <use
           xlink:href="#glyph13-6"
           x="395.758"
           y="428.27463"
           id="use11951"
           width="595.27557"
           height="841.88977" />
      </g>
      <g
         transform="translate(-20.486333,46.557376)"
         style="fill:#211e1e;fill-opacity:1"
         id="g11953">
        <use
           xlink:href="#glyph16-1"
           x="398.798"
           y="431.27463"
           id="use11955"
           width="595.27557"
           height="841.88977" />
        <use
           xlink:href="#glyph16-2"
           x="400.68799"
           y="431.27463"
           id="use11957"
           width="595.27557"
           height="841.88977" />
      </g>
      <g
         transform="translate(-20.486333,46.557376)"
         style="fill:#211e1e;fill-opacity:1"
         id="g11959">
        <use
           xlink:href="#glyph15-5"
           x="402.686"
           y="428.27463"
           id="use11961"
           width="595.27557"
           height="841.88977" />
        <use
           xlink:href="#glyph15-3"
           x="404.94199"
           y="428.27463"
           id="use11963"
           width="595.27557"
           height="841.88977" />
      </g>
      <g
         transform="translate(-20.486333,46.557376)"
         style="fill:#211e1e;fill-opacity:1"
         id="g11965">
        <use
           xlink:href="#glyph13-6"
           x="410.27802"
           y="428.27463"
           id="use11967"
           width="595.27557"
           height="841.88977" />
      </g>
      <g
         transform="translate(-20.486333,46.557376)"
         style="fill:#211e1e;fill-opacity:1"
         id="g11969">
        <use
           xlink:href="#glyph16-1"
           x="413.31799"
           y="431.27463"
           id="use11971"
           width="595.27557"
           height="841.88977" />
        <use
           xlink:href="#glyph16-2"
           x="415.20801"
           y="431.27463"
           id="use11973"
           width="595.27557"
           height="841.88977" />
      </g>
      <g
         transform="translate(-20.486333,46.557376)"
         style="fill:#211e1e;fill-opacity:1"
         id="g11975">
        <use
           xlink:href="#glyph13-7"
           x="417.20599"
           y="428.27463"
           id="use11977"
           width="595.27557"
           height="841.88977" />
        <use
           xlink:href="#glyph13-8"
           x="420.16599"
           y="428.27463"
           id="use11979"
           width="595.27557"
           height="841.88977" />
        <use
           xlink:href="#glyph13-9"
           x="422.39001"
           y="428.27463"
           id="use11981"
           width="595.27557"
           height="841.88977" />
      </g>
      <g
         transform="translate(-20.486333,46.557376)"
         style="fill:#211e1e;fill-opacity:1"
         id="g11983">
        <use
           xlink:href="#glyph18-2"
           x="429.77802"
           y="428.41873"
           id="use11985"
           width="595.27557"
           height="841.88977" />
      </g>
      <g
         transform="translate(-20.486333,46.557376)"
         style="fill:#211e1e;fill-opacity:1"
         id="g11987">
        <use
           xlink:href="#glyph15-3"
           x="435.21201"
           y="428.48163"
           id="use11989"
           width="595.27557"
           height="841.88977" />
      </g>
      <g
         transform="translate(-20.486333,46.557376)"
         style="fill:#211e1e;fill-opacity:1"
         id="g11991">
        <use
           xlink:href="#glyph13-6"
           x="440.548"
           y="428.48163"
           id="use11993"
           width="595.27557"
           height="841.88977" />
      </g>
      <g
         transform="translate(-20.486333,46.557376)"
         style="fill:#211e1e;fill-opacity:1"
         id="g11995">
        <use
           xlink:href="#glyph16-1"
           x="443.58801"
           y="431.48163"
           id="use11997"
           width="595.27557"
           height="841.88977" />
        <use
           xlink:href="#glyph16-2"
           x="445.47739"
           y="431.48163"
           id="use11999"
           width="595.27557"
           height="841.88977" />
      </g>
      <path
         style="fill:none;stroke:#211e1e;stroke-width:1;stroke-linecap:butt;stroke-linejoin:miter;stroke-miterlimit:4;stroke-opacity:1;stroke-dasharray:6, 2"
         d="M 228.2832,422.55738 424.29883,349.34254 M 228.2832,476.45973 419.97461,403.53395"
         id="path12001"
         inkscape:connector-curvature="0" />
      <path
         style="fill:none;stroke:#211e1e;stroke-width:1;stroke-linecap:butt;stroke-linejoin:miter;stroke-miterlimit:4;stroke-opacity:1"
         d="M 164.01367,530.93629 385.0957,454.26441"
         id="path12003"
         inkscape:connector-curvature="0" />
      <path
         style="fill:#8f8f8f;fill-opacity:1;fill-rule:nonzero;stroke:none"
         d="m 355.41601,363.21363 c 0,0.82812 0.67188,1.5 1.5,1.5 0.82813,0 1.5,-0.67188 1.5,-1.5 0,-0.82813 -0.67187,-1.5 -1.5,-1.5 -0.82812,0 -1.5,0.67187 -1.5,1.5"
         id="path12005"
         inkscape:connector-curvature="0" />
      <path
         style="fill:#8f8f8f;fill-opacity:1;fill-rule:nonzero;stroke:none"
         d="m 359.27148,385.31129 c 0,0.82812 0.67188,1.5 1.5,1.5 0.82813,0 1.5,-0.67188 1.5,-1.5 0,-0.82813 -0.67187,-1.5 -1.5,-1.5 -0.82812,0 -1.5,0.67187 -1.5,1.5"
         id="path12007"
         inkscape:connector-curvature="0" />
      <path
         style="fill:#8f8f8f;fill-opacity:1;fill-rule:nonzero;stroke:none"
         d="m 348.27148,380.4441 c 0,0.82812 0.67188,1.5 1.5,1.5 0.82813,0 1.5,-0.67188 1.5,-1.5 0,-0.82813 -0.67187,-1.5 -1.5,-1.5 -0.82812,0 -1.5,0.67187 -1.5,1.5"
         id="path12009"
         inkscape:connector-curvature="0" />
      <path
         style="fill:#8f8f8f;fill-opacity:1;fill-rule:nonzero;stroke:none"
         d="m 351.88086,382.14332 c 0,0.82812 0.67187,1.5 1.5,1.5 0.82812,0 1.5,-0.67188 1.5,-1.5 0,-0.82813 -0.67188,-1.5 -1.5,-1.5 -0.82813,0 -1.5,0.67187 -1.5,1.5"
         id="path12011"
         inkscape:connector-curvature="0" />
      <path
         style="fill:#8f8f8f;fill-opacity:1;fill-rule:nonzero;stroke:none"
         d="m 351.54492,385.96363 c 0,0.83203 0.67187,1.5 1.5,1.5 0.82812,0 1.5,-0.66797 1.5,-1.5 0,-0.82813 -0.67188,-1.5 -1.5,-1.5 -0.82813,0 -1.5,0.67187 -1.5,1.5"
         id="path12013"
         inkscape:connector-curvature="0" />
      <path
         style="fill:#8f8f8f;fill-opacity:1;fill-rule:nonzero;stroke:none"
         d="m 358.46289,389.46754 c 0,0.82812 0.67187,1.5 1.5,1.5 0.82812,0 1.5,-0.67188 1.5,-1.5 0,-0.82813 -0.67188,-1.5 -1.5,-1.5 -0.82813,0 -1.5,0.67187 -1.5,1.5"
         id="path12015"
         inkscape:connector-curvature="0" />
      <path
         style="fill:#8f8f8f;fill-opacity:1;fill-rule:nonzero;stroke:none"
         d="m 368.65429,390.6355 c 0,0.82813 0.67188,1.5 1.5,1.5 0.82813,0 1.5,-0.67187 1.5,-1.5 0,-0.82812 -0.67187,-1.5 -1.5,-1.5 -0.82812,0 -1.5,0.67188 -1.5,1.5"
         id="path12017"
         inkscape:connector-curvature="0" />
      <path
         style="fill:#8f8f8f;fill-opacity:1;fill-rule:nonzero;stroke:none"
         d="m 351.47461,393.17066 c 0,0.83203 0.67187,1.5 1.5,1.5 0.82422,0 1.5,-0.66797 1.5,-1.5 0,-0.82812 -0.67578,-1.5 -1.5,-1.5 -0.82813,0 -1.5,0.67188 -1.5,1.5"
         id="path12019"
         inkscape:connector-curvature="0" />
      <path
         style="fill:#8f8f8f;fill-opacity:1;fill-rule:nonzero;stroke:none"
         d="m 334.68164,396.94019 c 0,0.83203 0.67187,1.5 1.5,1.5 0.82812,0 1.5,-0.66797 1.5,-1.5 0,-0.82812 -0.67188,-1.5 -1.5,-1.5 -0.82813,0 -1.5,0.67188 -1.5,1.5"
         id="path12021"
         inkscape:connector-curvature="0" />
      <path
         style="fill:#8f8f8f;fill-opacity:1;fill-rule:nonzero;stroke:none"
         d="m 328.20508,375.28394 c 0,0.82813 0.67187,1.5 1.5,1.5 0.82812,0 1.5,-0.67187 1.5,-1.5 0,-0.82812 -0.67188,-1.5 -1.5,-1.5 -0.82813,0 -1.5,0.67188 -1.5,1.5"
         id="path12023"
         inkscape:connector-curvature="0" />
      <path
         style="fill:#8f8f8f;fill-opacity:1;fill-rule:nonzero;stroke:none"
         d="m 317.37304,396.69019 c 0,0.82813 0.67188,1.5 1.5,1.5 0.82813,0 1.5,-0.67187 1.5,-1.5 0,-0.83203 -0.67187,-1.5 -1.5,-1.5 -0.82812,0 -1.5,0.66797 -1.5,1.5"
         id="path12025"
         inkscape:connector-curvature="0" />
      <path
         style="fill:#8f8f8f;fill-opacity:1;fill-rule:nonzero;stroke:none"
         d="m 303.99804,396.69019 c 0,0.82813 0.67188,1.5 1.5,1.5 0.82813,0 1.5,-0.67187 1.5,-1.5 0,-0.83203 -0.67187,-1.5 -1.5,-1.5 -0.82812,0 -1.5,0.66797 -1.5,1.5"
         id="path12027"
         inkscape:connector-curvature="0" />
      <path
         style="fill:#8f8f8f;fill-opacity:1;fill-rule:nonzero;stroke:none"
         d="m 290.93164,387.65113 c 0,0.82812 0.67187,1.5 1.5,1.5 0.82812,0 1.5,-0.67188 1.5,-1.5 0,-0.82813 -0.67188,-1.5 -1.5,-1.5 -0.82813,0 -1.5,0.67187 -1.5,1.5"
         id="path12029"
         inkscape:connector-curvature="0" />
      <path
         style="fill:#8f8f8f;fill-opacity:1;fill-rule:nonzero;stroke:none"
         d="m 276.74804,389.6941 c 0,0.82812 0.67188,1.5 1.5,1.5 0.82813,0 1.5,-0.67188 1.5,-1.5 0,-0.83203 -0.67187,-1.5 -1.5,-1.5 -0.82812,0 -1.5,0.66797 -1.5,1.5"
         id="path12031"
         inkscape:connector-curvature="0" />
      <path
         style="fill:#8f8f8f;fill-opacity:1;fill-rule:nonzero;stroke:none"
         d="m 273.0332,396.91285 c 0,0.82812 0.66797,1.5 1.5,1.5 0.82813,0 1.5,-0.67188 1.5,-1.5 0,-0.82813 -0.67187,-1.5 -1.5,-1.5 -0.83203,0 -1.5,0.67187 -1.5,1.5"
         id="path12033"
         inkscape:connector-curvature="0" />
      <path
         style="fill:#8f8f8f;fill-opacity:1;fill-rule:nonzero;stroke:none"
         d="m 288.84961,405.40504 c 0,0.82812 0.67187,1.5 1.5,1.5 0.82812,0 1.5,-0.67188 1.5,-1.5 0,-0.82813 -0.67188,-1.5 -1.5,-1.5 -0.82813,0 -1.5,0.67187 -1.5,1.5"
         id="path12035"
         inkscape:connector-curvature="0" />
      <path
         style="fill:#8f8f8f;fill-opacity:1;fill-rule:nonzero;stroke:none"
         d="m 284.46289,427.37379 c 0,0.82812 0.67187,1.5 1.5,1.5 0.82812,0 1.5,-0.67188 1.5,-1.5 0,-0.82813 -0.67188,-1.5 -1.5,-1.5 -0.82813,0 -1.5,0.67187 -1.5,1.5"
         id="path12037"
         inkscape:connector-curvature="0" />
      <path
         style="fill:#8f8f8f;fill-opacity:1;fill-rule:nonzero;stroke:none"
         d="m 288.10742,423.36988 c 0,0.82812 0.67187,1.5 1.5,1.5 0.82812,0 1.5,-0.67188 1.5,-1.5 0,-0.82813 -0.67188,-1.5 -1.5,-1.5 -0.82813,0 -1.5,0.67187 -1.5,1.5"
         id="path12039"
         inkscape:connector-curvature="0" />
      <path
         style="fill:#8f8f8f;fill-opacity:1;fill-rule:nonzero;stroke:none"
         d="m 288.96679,431.37769 c 0,0.82813 0.67579,1.5 1.5,1.5 0.82813,0 1.5,-0.67187 1.5,-1.5 0,-0.82812 -0.67187,-1.5 -1.5,-1.5 -0.82421,0 -1.5,0.67188 -1.5,1.5"
         id="path12041"
         inkscape:connector-curvature="0" />
      <path
         style="fill:#8f8f8f;fill-opacity:1;fill-rule:nonzero;stroke:none"
         d="m 317.63476,431.37769 c 0,0.82813 0.67188,1.5 1.5,1.5 0.82813,0 1.5,-0.67187 1.5,-1.5 0,-0.82812 -0.67187,-1.5 -1.5,-1.5 -0.82812,0 -1.5,0.67188 -1.5,1.5"
         id="path12043"
         inkscape:connector-curvature="0" />
      <path
         style="fill:#8f8f8f;fill-opacity:1;fill-rule:nonzero;stroke:none"
         d="m 317.9707,428.86988 c 0,0.82812 0.67188,1.5 1.5,1.5 0.82813,0 1.5,-0.67188 1.5,-1.5 0,-0.82813 -0.67187,-1.5 -1.5,-1.5 -0.82812,0 -1.5,0.67187 -1.5,1.5"
         id="path12045"
         inkscape:connector-curvature="0" />
      <path
         style="fill:#8f8f8f;fill-opacity:1;fill-rule:nonzero;stroke:none"
         d="m 296.59961,443.73316 c 0,0.82813 0.67187,1.5 1.5,1.5 0.82812,0 1.5,-0.67187 1.5,-1.5 0,-0.82812 -0.67188,-1.5 -1.5,-1.5 -0.82813,0 -1.5,0.67188 -1.5,1.5"
         id="path12047"
         inkscape:connector-curvature="0" />
      <path
         style="fill:#8f8f8f;fill-opacity:1;fill-rule:nonzero;stroke:none"
         d="m 307.53711,438.95582 c 0,0.82812 0.67187,1.5 1.5,1.5 0.82812,0 1.5,-0.67188 1.5,-1.5 0,-0.82813 -0.67188,-1.5 -1.5,-1.5 -0.82813,0 -1.5,0.67187 -1.5,1.5"
         id="path12049"
         inkscape:connector-curvature="0" />
      <path
         style="fill:#8f8f8f;fill-opacity:1;fill-rule:nonzero;stroke:none"
         d="m 306.16601,443.24488 c 0,0.82812 0.67188,1.5 1.5,1.5 0.82813,0 1.5,-0.67188 1.5,-1.5 0,-0.82813 -0.67187,-1.5 -1.5,-1.5 -0.82812,0 -1.5,0.67187 -1.5,1.5"
         id="path12051"
         inkscape:connector-curvature="0" />
      <path
         style="fill:#8f8f8f;fill-opacity:1;fill-rule:nonzero;stroke:none"
         d="m 316.67773,439.76441 c 0,0.82813 0.67188,1.5 1.5,1.5 0.82813,0 1.5,-0.67187 1.5,-1.5 0,-0.82812 -0.67187,-1.5 -1.5,-1.5 -0.82812,0 -1.5,0.67188 -1.5,1.5"
         id="path12053"
         inkscape:connector-curvature="0" />
      <path
         style="fill:#211e1e;fill-opacity:1;fill-rule:nonzero;stroke:none"
         d="m 309.88476,454.52222 c 0,0.82813 0.67188,1.5 1.5,1.5 0.82813,0 1.5,-0.67187 1.5,-1.5 0,-0.82812 -0.67187,-1.5 -1.5,-1.5 -0.82812,0 -1.5,0.67188 -1.5,1.5"
         id="path12055"
         inkscape:connector-curvature="0" />
      <path
         style="fill:#211e1e;fill-opacity:1;fill-rule:nonzero;stroke:none"
         d="m 306.16601,461.74488 c 0,0.82812 0.67188,1.5 1.5,1.5 0.82813,0 1.5,-0.67188 1.5,-1.5 0,-0.82813 -0.67187,-1.5 -1.5,-1.5 -0.82812,0 -1.5,0.67187 -1.5,1.5"
         id="path12057"
         inkscape:connector-curvature="0" />
      <path
         style="fill:#8f8f8f;fill-opacity:1;fill-rule:nonzero;stroke:none"
         d="m 280.85742,441.61207 c 0,0.82812 0.67187,1.5 1.5,1.5 0.82812,0 1.5,-0.67188 1.5,-1.5 0,-0.82813 -0.67188,-1.5 -1.5,-1.5 -0.82813,0 -1.5,0.67187 -1.5,1.5"
         id="path12059"
         inkscape:connector-curvature="0" />
      <path
         style="fill:#8f8f8f;fill-opacity:1;fill-rule:nonzero;stroke:none"
         d="m 265.59961,448.40504 c 0,0.82812 0.67187,1.5 1.5,1.5 0.82812,0 1.5,-0.67188 1.5,-1.5 0,-0.82813 -0.67188,-1.5 -1.5,-1.5 -0.82813,0 -1.5,0.67187 -1.5,1.5"
         id="path12061"
         inkscape:connector-curvature="0" />
      <path
         style="fill:#8f8f8f;fill-opacity:1;fill-rule:nonzero;stroke:none"
         d="m 368.84179,381.62769 c 0,0.83203 0.67579,1.5 1.5,1.5 0.82813,0 1.5,-0.66797 1.5,-1.5 0,-0.82812 -0.67187,-1.5 -1.5,-1.5 -0.82421,0 -1.5,0.67188 -1.5,1.5"
         id="path12063"
         inkscape:connector-curvature="0" />
      <path
         style="fill:#8f8f8f;fill-opacity:1;fill-rule:nonzero;stroke:none"
         d="m 363.4707,374.34254 c 0,0.83203 0.67188,1.5 1.5,1.5 0.82813,0 1.5,-0.66797 1.5,-1.5 0,-0.82813 -0.67187,-1.5 -1.5,-1.5 -0.82812,0 -1.5,0.67187 -1.5,1.5"
         id="path12065"
         inkscape:connector-curvature="0" />
      <path
         style="fill:#8f8f8f;fill-opacity:1;fill-rule:nonzero;stroke:none"
         d="m 353.12695,378.79957 c 0,0.82812 0.67188,1.5 1.5,1.5 0.82813,0 1.5,-0.67188 1.5,-1.5 0,-0.82813 -0.67187,-1.5 -1.5,-1.5 -0.82812,0 -1.5,0.67187 -1.5,1.5"
         id="path12067"
         inkscape:connector-curvature="0" />
      <path
         style="fill:#8f8f8f;fill-opacity:1;fill-rule:nonzero;stroke:none"
         d="m 359.01758,378.00269 c 0,0.83203 0.67187,1.5 1.5,1.5 0.82812,0 1.5,-0.66797 1.5,-1.5 0,-0.82812 -0.67188,-1.5 -1.5,-1.5 -0.82813,0 -1.5,0.67188 -1.5,1.5"
         id="path12069"
         inkscape:connector-curvature="0" />
      <path
         style="fill:#8f8f8f;fill-opacity:1;fill-rule:nonzero;stroke:none"
         d="m 386.21289,379.91285 c 0,0.82812 0.67187,1.5 1.5,1.5 0.82812,0 1.5,-0.67188 1.5,-1.5 0,-0.82813 -0.67188,-1.5 -1.5,-1.5 -0.82813,0 -1.5,0.67187 -1.5,1.5"
         id="path12071"
         inkscape:connector-curvature="0" />
      <path
         style="fill:#8f8f8f;fill-opacity:1;fill-rule:nonzero;stroke:none"
         d="m 374.42773,345.73707 c 0,0.82812 0.67578,1.5 1.5,1.5 0.82813,0 1.5,-0.67188 1.5,-1.5 0,-0.82813 -0.67187,-1.5 -1.5,-1.5 -0.82422,0 -1.5,0.67187 -1.5,1.5"
         id="path12073"
         inkscape:connector-curvature="0" />
      <path
         style="fill:#8f8f8f;fill-opacity:1;fill-rule:nonzero;stroke:none"
         d="m 394.49414,354.7566 c 0,0.83203 0.67187,1.5 1.5,1.5 0.82812,0 1.5,-0.66797 1.5,-1.5 0,-0.82813 -0.67188,-1.5 -1.5,-1.5 -0.82813,0 -1.5,0.67187 -1.5,1.5"
         id="path12075"
         inkscape:connector-curvature="0" />
      <path
         style="fill:#8f8f8f;fill-opacity:1;fill-rule:nonzero;stroke:none"
         d="m 382.45508,356.23707 c 0,0.82812 0.67187,1.5 1.5,1.5 0.82812,0 1.5,-0.67188 1.5,-1.5 0,-0.82813 -0.67188,-1.5 -1.5,-1.5 -0.82813,0 -1.5,0.67187 -1.5,1.5"
         id="path12077"
         inkscape:connector-curvature="0" />
      <path
         style="fill:#8f8f8f;fill-opacity:1;fill-rule:nonzero;stroke:none"
         d="m 375.45117,354.96363 c 0,0.82812 0.66797,1.5 1.5,1.5 0.82812,0 1.5,-0.67188 1.5,-1.5 0,-0.82813 -0.67188,-1.5 -1.5,-1.5 -0.83203,0 -1.5,0.67187 -1.5,1.5"
         id="path12079"
         inkscape:connector-curvature="0" />
      <path
         style="fill:#8f8f8f;fill-opacity:1;fill-rule:nonzero;stroke:none"
         d="m 365.46679,357.29957 c 0,0.82812 0.67579,1.5 1.5,1.5 0.82813,0 1.5,-0.67188 1.5,-1.5 0,-0.82813 -0.67187,-1.5 -1.5,-1.5 -0.82421,0 -1.5,0.67187 -1.5,1.5"
         id="path12081"
         inkscape:connector-curvature="0" />
      <path
         style="fill:#8f8f8f;fill-opacity:1;fill-rule:nonzero;stroke:none"
         d="m 372.20508,360.0066 c 0,0.82812 0.67187,1.5 1.5,1.5 0.82812,0 1.5,-0.67188 1.5,-1.5 0,-0.82813 -0.67188,-1.5 -1.5,-1.5 -0.82813,0 -1.5,0.67187 -1.5,1.5"
         id="path12083"
         inkscape:connector-curvature="0" />
      <path
         style="fill:#8f8f8f;fill-opacity:1;fill-rule:nonzero;stroke:none"
         d="m 368.88476,363.698 c 0,0.82813 0.67578,1.5 1.5,1.5 0.82813,0 1.5,-0.67187 1.5,-1.5 0,-0.82812 -0.67187,-1.5 -1.5,-1.5 -0.82422,0 -1.5,0.67188 -1.5,1.5"
         id="path12085"
         inkscape:connector-curvature="0" />
      <path
         style="fill:#8f8f8f;fill-opacity:1;fill-rule:nonzero;stroke:none"
         d="m 348.31836,357.37769 c 0,0.82813 0.67187,1.5 1.5,1.5 0.82812,0 1.5,-0.67187 1.5,-1.5 0,-0.82812 -0.67188,-1.5 -1.5,-1.5 -0.82813,0 -1.5,0.67188 -1.5,1.5"
         id="path12087"
         inkscape:connector-curvature="0" />
      <path
         style="fill:#8f8f8f;fill-opacity:1;fill-rule:nonzero;stroke:none"
         d="m 383.0332,371.70972 c 0,0.82813 0.67188,1.5 1.5,1.5 0.82813,0 1.5,-0.67187 1.5,-1.5 0,-0.82812 -0.67187,-1.5 -1.5,-1.5 -0.82812,0 -1.5,0.67188 -1.5,1.5"
         id="path12089"
         inkscape:connector-curvature="0" />
      <path
         style="fill:#8f8f8f;fill-opacity:1;fill-rule:nonzero;stroke:none"
         d="m 378.36133,371.70972 c 0,0.82813 0.67187,1.5 1.5,1.5 0.82812,0 1.5,-0.67187 1.5,-1.5 0,-0.82812 -0.67188,-1.5 -1.5,-1.5 -0.82813,0 -1.5,0.67188 -1.5,1.5"
         id="path12091"
         inkscape:connector-curvature="0" />
      <path
         style="fill:#8f8f8f;fill-opacity:1;fill-rule:nonzero;stroke:none"
         d="m 382.31054,367.90894 c 0,0.82422 0.67188,1.5 1.5,1.5 0.82813,0 1.5,-0.67578 1.5,-1.5 0,-0.83203 -0.67187,-1.5 -1.5,-1.5 -0.82812,0 -1.5,0.66797 -1.5,1.5"
         id="path12093"
         inkscape:connector-curvature="0" />
      <path
         style="fill:#8f8f8f;fill-opacity:1;fill-rule:nonzero;stroke:none"
         d="m 402.90429,369.35425 c 0,0.83204 0.67188,1.5 1.5,1.5 0.82813,0 1.5,-0.66796 1.5,-1.5 0,-0.82812 -0.67187,-1.5 -1.5,-1.5 -0.82812,0 -1.5,0.67188 -1.5,1.5"
         id="path12095"
         inkscape:connector-curvature="0" />
      <path
         style="fill:#8f8f8f;fill-opacity:1;fill-rule:nonzero;stroke:none"
         d="m 392.96289,374.33863 c 0,0.82812 0.67187,1.5 1.5,1.5 0.82812,0 1.5,-0.67188 1.5,-1.5 0,-0.82813 -0.67188,-1.5 -1.5,-1.5 -0.82813,0 -1.5,0.67187 -1.5,1.5"
         id="path12097"
         inkscape:connector-curvature="0" />
      <path
         style="fill:#8f8f8f;fill-opacity:1;fill-rule:nonzero;stroke:none"
         d="m 392.96289,377.61207 c 0,0.82812 0.67187,1.5 1.5,1.5 0.82812,0 1.5,-0.67188 1.5,-1.5 0,-0.82813 -0.67188,-1.5 -1.5,-1.5 -0.82813,0 -1.5,0.67187 -1.5,1.5"
         id="path12099"
         inkscape:connector-curvature="0" />
      <path
         style="fill:#8f8f8f;fill-opacity:1;fill-rule:nonzero;stroke:none"
         d="m 382.25195,386.87769 c 0,0.82813 0.67188,1.5 1.5,1.5 0.82813,0 1.5,-0.67187 1.5,-1.5 0,-0.82812 -0.67187,-1.5 -1.5,-1.5 -0.82812,0 -1.5,0.67188 -1.5,1.5"
         id="path12101"
         inkscape:connector-curvature="0" />
      <path
         style="fill:#8f8f8f;fill-opacity:1;fill-rule:nonzero;stroke:none"
         d="m 349.02929,400.55347 c 0,0.82813 0.67188,1.5 1.5,1.5 0.82813,0 1.5,-0.67187 1.5,-1.5 0,-0.83203 -0.67187,-1.5 -1.5,-1.5 -0.82812,0 -1.5,0.66797 -1.5,1.5"
         id="path12103"
         inkscape:connector-curvature="0" />
      <path
         style="fill:#8f8f8f;fill-opacity:1;fill-rule:nonzero;stroke:none"
         d="m 349.02929,385.29957 c 0,0.82812 0.67188,1.5 1.5,1.5 0.82813,0 1.5,-0.67188 1.5,-1.5 0,-0.82813 -0.67187,-1.5 -1.5,-1.5 -0.82812,0 -1.5,0.67187 -1.5,1.5"
         id="path12105"
         inkscape:connector-curvature="0" />
      <path
         style="fill:#8f8f8f;fill-opacity:1;fill-rule:nonzero;stroke:none"
         d="m 341.11133,373.8855 c 0,0.82813 0.67187,1.5 1.5,1.5 0.82812,0 1.5,-0.67187 1.5,-1.5 0,-0.82812 -0.67188,-1.5 -1.5,-1.5 -0.82813,0 -1.5,0.67188 -1.5,1.5"
         id="path12107"
         inkscape:connector-curvature="0" />
      <path
         style="fill:#8f8f8f;fill-opacity:1;fill-rule:nonzero;stroke:none"
         d="m 337.67773,377.573 c 0,0.82813 0.67188,1.5 1.5,1.5 0.82813,0 1.5,-0.67187 1.5,-1.5 0,-0.82812 -0.67187,-1.5 -1.5,-1.5 -0.82812,0 -1.5,0.67188 -1.5,1.5"
         id="path12109"
         inkscape:connector-curvature="0" />
      <path
         style="fill:#8f8f8f;fill-opacity:1;fill-rule:nonzero;stroke:none"
         d="m 355.96679,366.96363 c 0,0.82812 0.67188,1.5 1.5,1.5 0.82813,0 1.5,-0.67188 1.5,-1.5 0,-0.82813 -0.67187,-1.5 -1.5,-1.5 -0.82812,0 -1.5,0.67187 -1.5,1.5"
         id="path12111"
         inkscape:connector-curvature="0" />
      <path
         style="fill:#8f8f8f;fill-opacity:1;fill-rule:nonzero;stroke:none"
         d="m 372.16211,363.09644 c 0,0.82813 0.67187,1.5 1.5,1.5 0.83203,0 1.5,-0.67187 1.5,-1.5 0,-0.82812 -0.66797,-1.5 -1.5,-1.5 -0.82813,0 -1.5,0.67188 -1.5,1.5"
         id="path12113"
         inkscape:connector-curvature="0" />
      <path
         style="fill:#8f8f8f;fill-opacity:1;fill-rule:nonzero;stroke:none"
         d="m 360.20117,353.89332 c 0,0.82812 0.66797,1.5 1.5,1.5 0.82812,0 1.5,-0.67188 1.5,-1.5 0,-0.82813 -0.67188,-1.5 -1.5,-1.5 -0.83203,0 -1.5,0.67187 -1.5,1.5"
         id="path12115"
         inkscape:connector-curvature="0" />
      <path
         style="fill:#8f8f8f;fill-opacity:1;fill-rule:nonzero;stroke:none"
         d="m 363.85742,349.88941 c 0,0.82813 0.67187,1.5 1.5,1.5 0.82812,0 1.5,-0.67187 1.5,-1.5 0,-0.82812 -0.67188,-1.5 -1.5,-1.5 -0.82813,0 -1.5,0.67188 -1.5,1.5"
         id="path12117"
         inkscape:connector-curvature="0" />
      <path
         style="fill:#8f8f8f;fill-opacity:1;fill-rule:nonzero;stroke:none"
         d="m 306.26758,380.95191 c 0,0.82813 0.67187,1.5 1.5,1.5 0.82812,0 1.5,-0.67187 1.5,-1.5 0,-0.82812 -0.67188,-1.5 -1.5,-1.5 -0.82813,0 -1.5,0.67188 -1.5,1.5"
         id="path12119"
         inkscape:connector-curvature="0" />
      <path
         style="fill:#8f8f8f;fill-opacity:1;fill-rule:nonzero;stroke:none"
         d="m 321.72851,424.57691 c 0,0.82813 0.67188,1.5 1.5,1.5 0.82813,0 1.5,-0.67187 1.5,-1.5 0,-0.82812 -0.67187,-1.5 -1.5,-1.5 -0.82812,0 -1.5,0.67188 -1.5,1.5"
         id="path12121"
         inkscape:connector-curvature="0" />
      <path
         style="fill:#8f8f8f;fill-opacity:1;fill-rule:nonzero;stroke:none"
         d="m 306.6582,430.17847 c 0,0.82813 0.67188,1.5 1.5,1.5 0.82813,0 1.5,-0.67187 1.5,-1.5 0,-0.82812 -0.67187,-1.5 -1.5,-1.5 -0.82812,0 -1.5,0.67188 -1.5,1.5"
         id="path12123"
         inkscape:connector-curvature="0" />
      <path
         style="fill:#8f8f8f;fill-opacity:1;fill-rule:nonzero;stroke:none"
         d="m 299.84961,428.88941 c 0,0.83203 0.67187,1.5 1.5,1.5 0.82812,0 1.5,-0.66797 1.5,-1.5 0,-0.82812 -0.67188,-1.5 -1.5,-1.5 -0.82813,0 -1.5,0.67188 -1.5,1.5"
         id="path12125"
         inkscape:connector-curvature="0" />
      <path
         style="fill:#8f8f8f;fill-opacity:1;fill-rule:nonzero;stroke:none"
         d="m 295.88086,433.99879 c 0,0.82812 0.67187,1.5 1.5,1.5 0.82812,0 1.5,-0.67188 1.5,-1.5 0,-0.82813 -0.67188,-1.5 -1.5,-1.5 -0.82813,0 -1.5,0.67187 -1.5,1.5"
         id="path12127"
         inkscape:connector-curvature="0" />
      <path
         style="fill:#8f8f8f;fill-opacity:1;fill-rule:nonzero;stroke:none"
         d="m 294.75195,435.90894 c 0,0.82422 0.67188,1.5 1.5,1.5 0.82813,0 1.5,-0.67578 1.5,-1.5 0,-0.83203 -0.67187,-1.5 -1.5,-1.5 -0.82812,0 -1.5,0.66797 -1.5,1.5"
         id="path12129"
         inkscape:connector-curvature="0" />
      <path
         style="fill:#8f8f8f;fill-opacity:1;fill-rule:nonzero;stroke:none"
         d="m 293.25195,438.0066 c 0,0.82812 0.67188,1.5 1.5,1.5 0.82813,0 1.5,-0.67188 1.5,-1.5 0,-0.82813 -0.67187,-1.5 -1.5,-1.5 -0.82812,0 -1.5,0.67187 -1.5,1.5"
         id="path12131"
         inkscape:connector-curvature="0" />
      <path
         style="fill:#8f8f8f;fill-opacity:1;fill-rule:nonzero;stroke:none"
         d="m 271.83789,431.14332 c 0,0.82812 0.67187,1.5 1.5,1.5 0.82812,0 1.5,-0.67188 1.5,-1.5 0,-0.82813 -0.67188,-1.5 -1.5,-1.5 -0.82813,0 -1.5,0.67187 -1.5,1.5"
         id="path12133"
         inkscape:connector-curvature="0" />
      <path
         style="fill:#8f8f8f;fill-opacity:1;fill-rule:nonzero;stroke:none"
         d="m 279.56836,436.85035 c 0,0.82812 0.67187,1.5 1.5,1.5 0.82812,0 1.5,-0.67188 1.5,-1.5 0,-0.82813 -0.67188,-1.5 -1.5,-1.5 -0.82813,0 -1.5,0.67187 -1.5,1.5"
         id="path12135"
         inkscape:connector-curvature="0" />
      <path
         style="fill:#8f8f8f;fill-opacity:1;fill-rule:nonzero;stroke:none"
         d="m 261.52929,451.39332 c 0,0.82812 0.67188,1.5 1.5,1.5 0.82813,0 1.5,-0.67188 1.5,-1.5 0,-0.83203 -0.67187,-1.5 -1.5,-1.5 -0.82812,0 -1.5,0.66797 -1.5,1.5"
         id="path12137"
         inkscape:connector-curvature="0" />
      <path
         style="fill:#8f8f8f;fill-opacity:1;fill-rule:nonzero;stroke:none"
         d="m 292.83398,465.55738 c 0,0.82812 0.67188,1.5 1.5,1.5 0.82813,0 1.5,-0.67188 1.5,-1.5 0,-0.82813 -0.67187,-1.5 -1.5,-1.5 -0.82812,0 -1.5,0.67187 -1.5,1.5"
         id="path12139"
         inkscape:connector-curvature="0" />
      <path
         style="fill:#8f8f8f;fill-opacity:1;fill-rule:nonzero;stroke:none"
         d="m 275.43945,468.22144 c 0,0.82813 0.67188,1.5 1.5,1.5 0.82813,0 1.5,-0.67187 1.5,-1.5 0,-0.82812 -0.67187,-1.5 -1.5,-1.5 -0.82812,0 -1.5,0.67188 -1.5,1.5"
         id="path12141"
         inkscape:connector-curvature="0" />
      <path
         style="fill:#211e1e;fill-opacity:1;fill-rule:nonzero;stroke:none"
         d="m 272.04101,475.08472 c 0,0.82813 0.67188,1.5 1.5,1.5 0.82813,0 1.5,-0.67187 1.5,-1.5 0,-0.83203 -0.67187,-1.5 -1.5,-1.5 -0.82812,0 -1.5,0.66797 -1.5,1.5"
         id="path12143"
         inkscape:connector-curvature="0" />
      <path
         style="fill:#211e1e;fill-opacity:1;fill-rule:nonzero;stroke:none"
         d="m 259.08789,472.21754 c 0,0.82812 0.67187,1.5 1.5,1.5 0.82812,0 1.5,-0.67188 1.5,-1.5 0,-0.83204 -0.67188,-1.5 -1.5,-1.5 -0.82813,0 -1.5,0.66796 -1.5,1.5"
         id="path12145"
         inkscape:connector-curvature="0" />
      <path
         style="fill:#211e1e;fill-opacity:1;fill-rule:nonzero;stroke:none"
         d="m 256.33789,471.67457 c 0,0.82812 0.67187,1.5 1.5,1.5 0.82812,0 1.5,-0.67188 1.5,-1.5 0,-0.82813 -0.67188,-1.5 -1.5,-1.5 -0.82813,0 -1.5,0.67187 -1.5,1.5"
         id="path12147"
         inkscape:connector-curvature="0" />
      <path
         style="fill:#211e1e;fill-opacity:1;fill-rule:nonzero;stroke:none"
         d="m 265.18554,481.80738 c 0,0.82812 0.67188,1.5 1.5,1.5 0.82813,0 1.5,-0.67188 1.5,-1.5 0,-0.82813 -0.67187,-1.5 -1.5,-1.5 -0.82812,0 -1.5,0.67187 -1.5,1.5"
         id="path12149"
         inkscape:connector-curvature="0" />
      <path
         style="fill:#211e1e;fill-opacity:1;fill-rule:nonzero;stroke:none"
         d="m 276.65429,480.08472 c 0,0.83203 0.67188,1.5 1.5,1.5 0.82813,0 1.5,-0.66797 1.5,-1.5 0,-0.82812 -0.67187,-1.5 -1.5,-1.5 -0.82812,0 -1.5,0.67188 -1.5,1.5"
         id="path12151"
         inkscape:connector-curvature="0" />
      <path
         style="fill:#211e1e;fill-opacity:1;fill-rule:nonzero;stroke:none"
         d="m 285.67773,494.73707 c 0,0.82812 0.67188,1.5 1.5,1.5 0.82813,0 1.5,-0.67188 1.5,-1.5 0,-0.82813 -0.67187,-1.5 -1.5,-1.5 -0.82812,0 -1.5,0.67187 -1.5,1.5"
         id="path12153"
         inkscape:connector-curvature="0" />
      <path
         style="fill:#211e1e;fill-opacity:1;fill-rule:nonzero;stroke:none"
         d="m 290.70898,500.6941 c 0,0.82812 0.67188,1.5 1.5,1.5 0.82813,0 1.5,-0.67188 1.5,-1.5 0,-0.82813 -0.67187,-1.5 -1.5,-1.5 -0.82812,0 -1.5,0.67187 -1.5,1.5"
         id="path12155"
         inkscape:connector-curvature="0" />
      <path
         style="fill:#211e1e;fill-opacity:1;fill-rule:nonzero;stroke:none"
         d="m 275.33008,498.29175 c 0,0.83204 0.67187,1.5 1.5,1.5 0.82812,0 1.5,-0.66796 1.5,-1.5 0,-0.82812 -0.67188,-1.5 -1.5,-1.5 -0.82813,0 -1.5,0.67188 -1.5,1.5"
         id="path12157"
         inkscape:connector-curvature="0" />
      <path
         style="fill:#211e1e;fill-opacity:1;fill-rule:nonzero;stroke:none"
         d="m 276.48633,500.20582 c 0,0.82812 0.67187,1.5 1.5,1.5 0.82812,0 1.5,-0.67188 1.5,-1.5 0,-0.82813 -0.67188,-1.5 -1.5,-1.5 -0.82813,0 -1.5,0.67187 -1.5,1.5"
         id="path12159"
         inkscape:connector-curvature="0" />
      <path
         style="fill:#211e1e;fill-opacity:1;fill-rule:nonzero;stroke:none"
         d="m 274.52929,502.16285 c 0,0.82812 0.67188,1.5 1.5,1.5 0.82813,0 1.5,-0.67188 1.5,-1.5 0,-0.82813 -0.67187,-1.5 -1.5,-1.5 -0.82812,0 -1.5,0.67187 -1.5,1.5"
         id="path12161"
         inkscape:connector-curvature="0" />
      <path
         style="fill:#211e1e;fill-opacity:1;fill-rule:nonzero;stroke:none"
         d="m 268.7832,505.41675 c 0,0.83204 0.67188,1.5 1.5,1.5 0.82813,0 1.5,-0.66796 1.5,-1.5 0,-0.82812 -0.67187,-1.5 -1.5,-1.5 -0.82812,0 -1.5,0.67188 -1.5,1.5"
         id="path12163"
         inkscape:connector-curvature="0" />
      <path
         style="fill:#211e1e;fill-opacity:1;fill-rule:nonzero;stroke:none"
         d="m 283.65039,485.99097 c 0,0.82813 0.67187,1.5 1.5,1.5 0.82812,0 1.5,-0.67187 1.5,-1.5 0,-0.82812 -0.67188,-1.5 -1.5,-1.5 -0.82813,0 -1.5,0.67188 -1.5,1.5"
         id="path12165"
         inkscape:connector-curvature="0" />
      <path
         style="fill:#211e1e;fill-opacity:1;fill-rule:nonzero;stroke:none"
         d="m 267.40429,490.34254 c 0,0.82812 0.67188,1.5 1.5,1.5 0.82813,0 1.5,-0.67188 1.5,-1.5 0,-0.82813 -0.67187,-1.5 -1.5,-1.5 -0.82812,0 -1.5,0.67187 -1.5,1.5"
         id="path12167"
         inkscape:connector-curvature="0" />
      <path
         style="fill:#211e1e;fill-opacity:1;fill-rule:nonzero;stroke:none"
         d="m 263.26367,490.87379 c 0,0.82812 0.67187,1.5 1.5,1.5 0.82812,0 1.5,-0.67188 1.5,-1.5 0,-0.82813 -0.67188,-1.5 -1.5,-1.5 -0.82813,0 -1.5,0.67187 -1.5,1.5"
         id="path12169"
         inkscape:connector-curvature="0" />
      <path
         style="fill:#211e1e;fill-opacity:1;fill-rule:nonzero;stroke:none"
         d="m 265.59961,497.56129 c 0,0.82812 0.67187,1.5 1.5,1.5 0.82812,0 1.5,-0.67188 1.5,-1.5 0,-0.82813 -0.67188,-1.5 -1.5,-1.5 -0.82813,0 -1.5,0.67187 -1.5,1.5"
         id="path12171"
         inkscape:connector-curvature="0" />
      <path
         style="fill:#211e1e;fill-opacity:1;fill-rule:nonzero;stroke:none"
         d="m 262.30664,497.79175 c 0,0.82813 0.67187,1.5 1.5,1.5 0.82812,0 1.5,-0.67187 1.5,-1.5 0,-0.83203 -0.67188,-1.5 -1.5,-1.5 -0.82813,0 -1.5,0.66797 -1.5,1.5"
         id="path12173"
         inkscape:connector-curvature="0" />
      <path
         style="fill:#211e1e;fill-opacity:1;fill-rule:nonzero;stroke:none"
         d="m 252.97851,503.4441 c 0,0.82812 0.67188,1.5 1.5,1.5 0.82422,0 1.5,-0.67188 1.5,-1.5 0,-0.83203 -0.67578,-1.5 -1.5,-1.5 -0.82812,0 -1.5,0.66797 -1.5,1.5"
         id="path12175"
         inkscape:connector-curvature="0" />
      <path
         style="fill:#211e1e;fill-opacity:1;fill-rule:nonzero;stroke:none"
         d="m 258.60351,480.08472 c 0,0.82813 0.67188,1.5 1.5,1.5 0.82813,0 1.5,-0.67187 1.5,-1.5 0,-0.82812 -0.67187,-1.5 -1.5,-1.5 -0.82812,0 -1.5,0.67188 -1.5,1.5"
         id="path12177"
         inkscape:connector-curvature="0" />
      <path
         style="fill:#211e1e;fill-opacity:1;fill-rule:nonzero;stroke:none"
         d="m 253.3457,487.48707 c 0,0.82812 0.67188,1.5 1.5,1.5 0.82813,0 1.5,-0.67188 1.5,-1.5 0,-0.82813 -0.67187,-1.5 -1.5,-1.5 -0.82812,0 -1.5,0.67187 -1.5,1.5"
         id="path12179"
         inkscape:connector-curvature="0" />
      <path
         style="fill:#211e1e;fill-opacity:1;fill-rule:nonzero;stroke:none"
         d="m 248.30273,482.4441 c 0,0.82812 0.67188,1.5 1.5,1.5 0.82813,0 1.5,-0.67188 1.5,-1.5 0,-0.82813 -0.67187,-1.5 -1.5,-1.5 -0.82812,0 -1.5,0.67187 -1.5,1.5"
         id="path12181"
         inkscape:connector-curvature="0" />
      <path
         style="fill:#211e1e;fill-opacity:1;fill-rule:nonzero;stroke:none"
         d="m 243.31054,478.85816 c 0,0.82813 0.67188,1.5 1.5,1.5 0.82813,0 1.5,-0.67187 1.5,-1.5 0,-0.82812 -0.67187,-1.5 -1.5,-1.5 -0.82812,0 -1.5,0.67188 -1.5,1.5"
         id="path12183"
         inkscape:connector-curvature="0" />
      <path
         style="fill:#211e1e;fill-opacity:1;fill-rule:nonzero;stroke:none"
         d="m 246.88867,474.69019 c 0,0.82813 0.67187,1.5 1.5,1.5 0.82812,0 1.5,-0.67187 1.5,-1.5 0,-0.82812 -0.67188,-1.5 -1.5,-1.5 -0.82813,0 -1.5,0.67188 -1.5,1.5"
         id="path12185"
         inkscape:connector-curvature="0" />
      <path
         style="fill:#211e1e;fill-opacity:1;fill-rule:nonzero;stroke:none"
         d="m 230.95117,482.58082 c 0,0.82812 0.67187,1.5 1.5,1.5 0.83203,0 1.5,-0.67188 1.5,-1.5 0,-0.82813 -0.66797,-1.5 -1.5,-1.5 -0.82813,0 -1.5,0.67187 -1.5,1.5"
         id="path12187"
         inkscape:connector-curvature="0" />
      <path
         style="fill:#211e1e;fill-opacity:1;fill-rule:nonzero;stroke:none"
         d="m 239.33789,492.92066 c 0,0.82813 0.67187,1.5 1.5,1.5 0.82812,0 1.5,-0.67187 1.5,-1.5 0,-0.83203 -0.67188,-1.5 -1.5,-1.5 -0.82813,0 -1.5,0.66797 -1.5,1.5"
         id="path12189"
         inkscape:connector-curvature="0" />
      <path
         style="fill:#211e1e;fill-opacity:1;fill-rule:nonzero;stroke:none"
         d="m 249.74023,493.50269 c 0,0.82813 0.66797,1.5 1.5,1.5 0.82813,0 1.5,-0.67187 1.5,-1.5 0,-0.82812 -0.67187,-1.5 -1.5,-1.5 -0.83203,0 -1.5,0.67188 -1.5,1.5"
         id="path12191"
         inkscape:connector-curvature="0" />
      <path
         style="fill:#211e1e;fill-opacity:1;fill-rule:nonzero;stroke:none"
         d="m 237.95898,488.07691 c 0,0.82813 0.67188,1.5 1.5,1.5 0.82813,0 1.5,-0.67187 1.5,-1.5 0,-0.82812 -0.67187,-1.5 -1.5,-1.5 -0.82812,0 -1.5,0.67188 -1.5,1.5"
         id="path12193"
         inkscape:connector-curvature="0" />
      <path
         style="fill:#211e1e;fill-opacity:1;fill-rule:nonzero;stroke:none"
         d="m 255.05273,494.448 c 0,0.82813 0.67188,1.5 1.5,1.5 0.82813,0 1.5,-0.67187 1.5,-1.5 0,-0.82812 -0.67187,-1.5 -1.5,-1.5 -0.82812,0 -1.5,0.67188 -1.5,1.5"
         id="path12195"
         inkscape:connector-curvature="0" />
      <path
         style="fill:#211e1e;fill-opacity:1;fill-rule:nonzero;stroke:none"
         d="m 245.92383,499.07691 c 0,0.82813 0.67187,1.5 1.5,1.5 0.82812,0 1.5,-0.67187 1.5,-1.5 0,-0.82812 -0.67188,-1.5 -1.5,-1.5 -0.82813,0 -1.5,0.67188 -1.5,1.5"
         id="path12197"
         inkscape:connector-curvature="0" />
      <path
         style="fill:#211e1e;fill-opacity:1;fill-rule:nonzero;stroke:none"
         d="m 234.56445,499.71363 c 0,0.82812 0.67188,1.5 1.5,1.5 0.82813,0 1.5,-0.67188 1.5,-1.5 0,-0.82813 -0.67187,-1.5 -1.5,-1.5 -0.82812,0 -1.5,0.67187 -1.5,1.5"
         id="path12199"
         inkscape:connector-curvature="0" />
      <path
         style="fill:#211e1e;fill-opacity:1;fill-rule:nonzero;stroke:none"
         d="m 227.55664,498.86597 c 0,0.82813 0.67187,1.5 1.5,1.5 0.82812,0 1.5,-0.67187 1.5,-1.5 0,-0.82812 -0.67188,-1.5 -1.5,-1.5 -0.82813,0 -1.5,0.67188 -1.5,1.5"
         id="path12201"
         inkscape:connector-curvature="0" />
      <path
         style="fill:#211e1e;fill-opacity:1;fill-rule:nonzero;stroke:none"
         d="m 223.41601,499.52613 c 0,0.82812 0.67188,1.5 1.5,1.5 0.82813,0 1.5,-0.67188 1.5,-1.5 0,-0.82813 -0.67187,-1.5 -1.5,-1.5 -0.82812,0 -1.5,0.67187 -1.5,1.5"
         id="path12203"
         inkscape:connector-curvature="0" />
      <path
         style="fill:#211e1e;fill-opacity:1;fill-rule:nonzero;stroke:none"
         d="m 226.46679,489.7566 c 0,0.82812 0.67188,1.5 1.5,1.5 0.82813,0 1.5,-0.67188 1.5,-1.5 0,-0.82813 -0.67187,-1.5 -1.5,-1.5 -0.82812,0 -1.5,0.67187 -1.5,1.5"
         id="path12205"
         inkscape:connector-curvature="0" />
      <path
         style="fill:#211e1e;fill-opacity:1;fill-rule:nonzero;stroke:none"
         d="m 215.98242,493.2605 c 0,0.82813 0.67187,1.5 1.5,1.5 0.82812,0 1.5,-0.67187 1.5,-1.5 0,-0.82812 -0.67188,-1.5 -1.5,-1.5 -0.82813,0 -1.5,0.67188 -1.5,1.5"
         id="path12207"
         inkscape:connector-curvature="0" />
      <path
         style="fill:#211e1e;fill-opacity:1;fill-rule:nonzero;stroke:none"
         d="m 212.16211,497.08472 c 0,0.82813 0.67187,1.5 1.5,1.5 0.82812,0 1.5,-0.67187 1.5,-1.5 0,-0.82812 -0.67188,-1.5 -1.5,-1.5 -0.82813,0 -1.5,0.67188 -1.5,1.5"
         id="path12209"
         inkscape:connector-curvature="0" />
      <path
         style="fill:#211e1e;fill-opacity:1;fill-rule:nonzero;stroke:none"
         d="m 218.09961,500.82691 c 0,0.83203 0.67187,1.5 1.5,1.5 0.82812,0 1.5,-0.66797 1.5,-1.5 0,-0.82812 -0.67188,-1.5 -1.5,-1.5 -0.82813,0 -1.5,0.67188 -1.5,1.5"
         id="path12211"
         inkscape:connector-curvature="0" />
      <path
         style="fill:#211e1e;fill-opacity:1;fill-rule:nonzero;stroke:none"
         d="m 221.00586,506.8816 c 0,0.82812 0.67187,1.5 1.5,1.5 0.83203,0 1.5,-0.67188 1.5,-1.5 0,-0.82813 -0.66797,-1.5 -1.5,-1.5 -0.82813,0 -1.5,0.67187 -1.5,1.5"
         id="path12213"
         inkscape:connector-curvature="0" />
      <path
         style="fill:#211e1e;fill-opacity:1;fill-rule:nonzero;stroke:none"
         d="m 220.45508,502.67457 c 0,0.82812 0.67187,1.5 1.5,1.5 0.82812,0 1.5,-0.67188 1.5,-1.5 0,-0.82813 -0.67188,-1.5 -1.5,-1.5 -0.82813,0 -1.5,0.67187 -1.5,1.5"
         id="path12215"
         inkscape:connector-curvature="0" />
      <path
         style="fill:#211e1e;fill-opacity:1;fill-rule:nonzero;stroke:none"
         d="m 225.64648,503.21754 c 0,0.82812 0.67188,1.5 1.5,1.5 0.82813,0 1.5,-0.67188 1.5,-1.5 0,-0.82813 -0.67187,-1.5 -1.5,-1.5 -0.82812,0 -1.5,0.67187 -1.5,1.5"
         id="path12217"
         inkscape:connector-curvature="0" />
      <path
         style="fill:#211e1e;fill-opacity:1;fill-rule:nonzero;stroke:none"
         d="m 223.7832,504.75269 c 0,0.83203 0.67188,1.5 1.5,1.5 0.82813,0 1.5,-0.66797 1.5,-1.5 0,-0.82812 -0.67187,-1.5 -1.5,-1.5 -0.82812,0 -1.5,0.67188 -1.5,1.5"
         id="path12219"
         inkscape:connector-curvature="0" />
      <path
         style="fill:#211e1e;fill-opacity:1;fill-rule:nonzero;stroke:none"
         d="m 200.31836,500.63941 c 0,0.82813 0.67187,1.5 1.5,1.5 0.82812,0 1.5,-0.67187 1.5,-1.5 0,-0.82812 -0.67188,-1.5 -1.5,-1.5 -0.82813,0 -1.5,0.67188 -1.5,1.5"
         id="path12221"
         inkscape:connector-curvature="0" />
      <path
         style="fill:#211e1e;fill-opacity:1;fill-rule:nonzero;stroke:none"
         d="m 207.41992,506.26832 c 0,0.82812 0.67187,1.5 1.5,1.5 0.82812,0 1.5,-0.67188 1.5,-1.5 0,-0.82813 -0.67188,-1.5 -1.5,-1.5 -0.82813,0 -1.5,0.67187 -1.5,1.5"
         id="path12223"
         inkscape:connector-curvature="0" />
      <path
         style="fill:#211e1e;fill-opacity:1;fill-rule:nonzero;stroke:none"
         d="m 210.81836,500.42847 c 0,0.82813 0.67187,1.5 1.5,1.5 0.82812,0 1.5,-0.67187 1.5,-1.5 0,-0.82812 -0.67188,-1.5 -1.5,-1.5 -0.82813,0 -1.5,0.67188 -1.5,1.5"
         id="path12225"
         inkscape:connector-curvature="0" />
      <path
         style="fill:#211e1e;fill-opacity:1;fill-rule:nonzero;stroke:none"
         d="m 208.58789,511.04566 c 0,0.82813 0.67187,1.5 1.5,1.5 0.82812,0 1.5,-0.67187 1.5,-1.5 0,-0.82812 -0.67188,-1.5 -1.5,-1.5 -0.82813,0 -1.5,0.67188 -1.5,1.5"
         id="path12227"
         inkscape:connector-curvature="0" />
      <path
         style="fill:#211e1e;fill-opacity:1;fill-rule:nonzero;stroke:none"
         d="m 203.91601,513.48707 c 0,0.82812 0.67188,1.5 1.5,1.5 0.82813,0 1.5,-0.67188 1.5,-1.5 0,-0.82813 -0.67187,-1.5 -1.5,-1.5 -0.82812,0 -1.5,0.67187 -1.5,1.5"
         id="path12229"
         inkscape:connector-curvature="0" />
      <path
         style="fill:#211e1e;fill-opacity:1;fill-rule:nonzero;stroke:none"
         d="m 187.88476,506.47925 c 0,0.82813 0.67188,1.5 1.5,1.5 0.82813,0 1.5,-0.67187 1.5,-1.5 0,-0.82812 -0.67187,-1.5 -1.5,-1.5 -0.82812,0 -1.5,0.67188 -1.5,1.5"
         id="path12231"
         inkscape:connector-curvature="0" />
      <path
         style="fill:#211e1e;fill-opacity:1;fill-rule:nonzero;stroke:none"
         d="m 172.87695,513.09254 c 0,0.82812 0.67188,1.5 1.5,1.5 0.83203,0 1.5,-0.67188 1.5,-1.5 0,-0.83204 -0.66797,-1.5 -1.5,-1.5 -0.82812,0 -1.5,0.66796 -1.5,1.5"
         id="path12233"
         inkscape:connector-curvature="0" />
      <path
         style="fill:#211e1e;fill-opacity:1;fill-rule:nonzero;stroke:none"
         d="m 159.22851,515.25269 c 0,0.82813 0.67188,1.5 1.5,1.5 0.82813,0 1.5,-0.67187 1.5,-1.5 0,-0.82812 -0.67187,-1.5 -1.5,-1.5 -0.82812,0 -1.5,0.67188 -1.5,1.5"
         id="path12235"
         inkscape:connector-curvature="0" />
      <path
         style="fill:#211e1e;fill-opacity:1;fill-rule:nonzero;stroke:none"
         d="m 155.51367,522.76441 c 0,0.82813 0.67187,1.5 1.5,1.5 0.82812,0 1.5,-0.67187 1.5,-1.5 0,-0.82812 -0.67188,-1.5 -1.5,-1.5 -0.82813,0 -1.5,0.67188 -1.5,1.5"
         id="path12237"
         inkscape:connector-curvature="0" />
      <path
         style="fill:#211e1e;fill-opacity:1;fill-rule:nonzero;stroke:none"
         d="m 166.93554,535.24097 c 0,0.82813 0.66797,1.5 1.5,1.5 0.82422,0 1.5,-0.67187 1.5,-1.5 0,-0.82812 -0.67578,-1.5 -1.5,-1.5 -0.83203,0 -1.5,0.67188 -1.5,1.5"
         id="path12239"
         inkscape:connector-curvature="0" />
      <path
         style="fill:#211e1e;fill-opacity:1;fill-rule:nonzero;stroke:none"
         d="m 170.91601,531.2605 c 0,0.82813 0.67188,1.5 1.5,1.5 0.82813,0 1.5,-0.67187 1.5,-1.5 0,-0.83203 -0.67187,-1.5 -1.5,-1.5 -0.82812,0 -1.5,0.66797 -1.5,1.5"
         id="path12241"
         inkscape:connector-curvature="0" />
      <path
         style="fill:#211e1e;fill-opacity:1;fill-rule:nonzero;stroke:none"
         d="m 186.36133,541.29175 c 0,0.82813 0.67187,1.5 1.5,1.5 0.82812,0 1.5,-0.67187 1.5,-1.5 0,-0.82812 -0.67188,-1.5 -1.5,-1.5 -0.82813,0 -1.5,0.67188 -1.5,1.5"
         id="path12243"
         inkscape:connector-curvature="0" />
      <path
         style="fill:#211e1e;fill-opacity:1;fill-rule:nonzero;stroke:none"
         d="m 200.16601,544.36988 c 0,0.83203 0.67188,1.5 1.5,1.5 0.82813,0 1.5,-0.66797 1.5,-1.5 0,-0.82813 -0.67187,-1.5 -1.5,-1.5 -0.82812,0 -1.5,0.67187 -1.5,1.5"
         id="path12245"
         inkscape:connector-curvature="0" />
      <path
         style="fill:#211e1e;fill-opacity:1;fill-rule:nonzero;stroke:none"
         d="m 200.15429,530.05347 c 0,0.82813 0.67188,1.5 1.5,1.5 0.82813,0 1.5,-0.67187 1.5,-1.5 0,-0.82812 -0.67187,-1.5 -1.5,-1.5 -0.82812,0 -1.5,0.67188 -1.5,1.5"
         id="path12247"
         inkscape:connector-curvature="0" />
      <path
         style="fill:#211e1e;fill-opacity:1;fill-rule:nonzero;stroke:none"
         d="m 203.99023,530.05347 c 0,0.82813 0.66797,1.5 1.5,1.5 0.82813,0 1.5,-0.67187 1.5,-1.5 0,-0.82812 -0.67187,-1.5 -1.5,-1.5 -0.83203,0 -1.5,0.67188 -1.5,1.5"
         id="path12249"
         inkscape:connector-curvature="0" />
      <path
         style="fill:#211e1e;fill-opacity:1;fill-rule:nonzero;stroke:none"
         d="m 203.99023,526.26832 c 0,0.82812 0.66797,1.5 1.5,1.5 0.82813,0 1.5,-0.67188 1.5,-1.5 0,-0.82813 -0.67187,-1.5 -1.5,-1.5 -0.83203,0 -1.5,0.67187 -1.5,1.5"
         id="path12251"
         inkscape:connector-curvature="0" />
      <path
         style="fill:#211e1e;fill-opacity:1;fill-rule:nonzero;stroke:none"
         d="m 210.40429,522.76441 c 0,0.82813 0.67188,1.5 1.5,1.5 0.82813,0 1.5,-0.67187 1.5,-1.5 0,-0.82812 -0.67187,-1.5 -1.5,-1.5 -0.82812,0 -1.5,0.67188 -1.5,1.5"
         id="path12253"
         inkscape:connector-curvature="0" />
      <path
         style="fill:#211e1e;fill-opacity:1;fill-rule:nonzero;stroke:none"
         d="m 210.41601,529.58472 c 0,0.82813 0.67188,1.5 1.5,1.5 0.82813,0 1.5,-0.67187 1.5,-1.5 0,-0.82812 -0.67187,-1.5 -1.5,-1.5 -0.82812,0 -1.5,0.67188 -1.5,1.5"
         id="path12255"
         inkscape:connector-curvature="0" />
      <path
         style="fill:#211e1e;fill-opacity:1;fill-rule:nonzero;stroke:none"
         d="m 210.41601,533.74097 c 0,0.82813 0.67188,1.5 1.5,1.5 0.82813,0 1.5,-0.67187 1.5,-1.5 0,-0.82812 -0.67187,-1.5 -1.5,-1.5 -0.82812,0 -1.5,0.67188 -1.5,1.5"
         id="path12257"
         inkscape:connector-curvature="0" />
      <path
         style="fill:#211e1e;fill-opacity:1;fill-rule:nonzero;stroke:none"
         d="m 221.08008,534.8816 c 0,0.82812 0.67187,1.5 1.5,1.5 0.82812,0 1.5,-0.67188 1.5,-1.5 0,-0.82813 -0.67188,-1.5 -1.5,-1.5 -0.82813,0 -1.5,0.67187 -1.5,1.5"
         id="path12259"
         inkscape:connector-curvature="0" />
      <path
         style="fill:#211e1e;fill-opacity:1;fill-rule:nonzero;stroke:none"
         d="m 249.76367,549.35816 c 0,0.82813 0.67187,1.5 1.5,1.5 0.82812,0 1.5,-0.67187 1.5,-1.5 0,-0.83203 -0.67188,-1.5 -1.5,-1.5 -0.82813,0 -1.5,0.66797 -1.5,1.5"
         id="path12261"
         inkscape:connector-curvature="0" />
      <path
         style="fill:#211e1e;fill-opacity:1;fill-rule:nonzero;stroke:none"
         d="m 227.13086,555.26441 c 0,0.82813 0.67187,1.5 1.5,1.5 0.82812,0 1.5,-0.67187 1.5,-1.5 0,-0.82812 -0.67188,-1.5 -1.5,-1.5 -0.82813,0 -1.5,0.67188 -1.5,1.5"
         id="path12263"
         inkscape:connector-curvature="0" />
      <path
         style="fill:#211e1e;fill-opacity:1;fill-rule:nonzero;stroke:none"
         d="m 234.58008,531.40504 c 0,0.82812 0.67187,1.5 1.5,1.5 0.82812,0 1.5,-0.67188 1.5,-1.5 0,-0.82813 -0.67188,-1.5 -1.5,-1.5 -0.82813,0 -1.5,0.67187 -1.5,1.5"
         id="path12265"
         inkscape:connector-curvature="0" />
      <path
         style="fill:#211e1e;fill-opacity:1;fill-rule:nonzero;stroke:none"
         d="m 231.16601,526.19019 c 0,0.82813 0.67188,1.5 1.5,1.5 0.82813,0 1.5,-0.67187 1.5,-1.5 0,-0.82812 -0.67187,-1.5 -1.5,-1.5 -0.82812,0 -1.5,0.67188 -1.5,1.5"
         id="path12267"
         inkscape:connector-curvature="0" />
      <path
         style="fill:#211e1e;fill-opacity:1;fill-rule:nonzero;stroke:none"
         d="m 220.97461,526.19019 c 0,0.82813 0.67187,1.5 1.5,1.5 0.82812,0 1.5,-0.67187 1.5,-1.5 0,-0.82812 -0.67188,-1.5 -1.5,-1.5 -0.82813,0 -1.5,0.67188 -1.5,1.5"
         id="path12269"
         inkscape:connector-curvature="0" />
      <path
         style="fill:#211e1e;fill-opacity:1;fill-rule:nonzero;stroke:none"
         d="m 217.12695,522.60816 c 0,0.82813 0.67188,1.5 1.5,1.5 0.82813,0 1.5,-0.67187 1.5,-1.5 0,-0.83203 -0.67187,-1.5 -1.5,-1.5 -0.82812,0 -1.5,0.66797 -1.5,1.5"
         id="path12271"
         inkscape:connector-curvature="0" />
      <path
         style="fill:#211e1e;fill-opacity:1;fill-rule:nonzero;stroke:none"
         d="m 215.33789,516.75269 c 0,0.83203 0.67187,1.5 1.5,1.5 0.82812,0 1.5,-0.66797 1.5,-1.5 0,-0.82812 -0.67188,-1.5 -1.5,-1.5 -0.82813,0 -1.5,0.67188 -1.5,1.5"
         id="path12273"
         inkscape:connector-curvature="0" />
      <path
         style="fill:#211e1e;fill-opacity:1;fill-rule:nonzero;stroke:none"
         d="m 224.15039,512.93238 c 0,0.82812 0.67187,1.5 1.5,1.5 0.82812,0 1.5,-0.67188 1.5,-1.5 0,-0.82813 -0.67188,-1.5 -1.5,-1.5 -0.82813,0 -1.5,0.67187 -1.5,1.5"
         id="path12275"
         inkscape:connector-curvature="0" />
      <path
         style="fill:#211e1e;fill-opacity:1;fill-rule:nonzero;stroke:none"
         d="m 230.94726,516.0105 c 0,0.82813 0.67188,1.5 1.5,1.5 0.82813,0 1.5,-0.67187 1.5,-1.5 0,-0.82812 -0.67187,-1.5 -1.5,-1.5 -0.82812,0 -1.5,0.67188 -1.5,1.5"
         id="path12277"
         inkscape:connector-curvature="0" />
      <path
         style="fill:#211e1e;fill-opacity:1;fill-rule:nonzero;stroke:none"
         d="m 230.94726,511.65894 c 0,0.82813 0.67188,1.5 1.5,1.5 0.82813,0 1.5,-0.67187 1.5,-1.5 0,-0.82812 -0.67187,-1.5 -1.5,-1.5 -0.82812,0 -1.5,0.67188 -1.5,1.5"
         id="path12279"
         inkscape:connector-curvature="0" />
      <path
         style="fill:#211e1e;fill-opacity:1;fill-rule:nonzero;stroke:none"
         d="m 230.94726,506.82691 c 0,0.82813 0.67188,1.5 1.5,1.5 0.82813,0 1.5,-0.67187 1.5,-1.5 0,-0.82812 -0.67187,-1.5 -1.5,-1.5 -0.82812,0 -1.5,0.67188 -1.5,1.5"
         id="path12281"
         inkscape:connector-curvature="0" />
      <path
         style="fill:#211e1e;fill-opacity:1;fill-rule:nonzero;stroke:none"
         d="m 234.88086,507.35816 c 0,0.82813 0.67187,1.5 1.5,1.5 0.82812,0 1.5,-0.67187 1.5,-1.5 0,-0.82812 -0.67188,-1.5 -1.5,-1.5 -0.82813,0 -1.5,0.67188 -1.5,1.5"
         id="path12283"
         inkscape:connector-curvature="0" />
      <path
         style="fill:#211e1e;fill-opacity:1;fill-rule:nonzero;stroke:none"
         d="m 234.34179,515.79957 c 0,0.82812 0.67188,1.5 1.5,1.5 0.83204,0 1.5,-0.67188 1.5,-1.5 0,-0.83203 -0.66796,-1.5 -1.5,-1.5 -0.82812,0 -1.5,0.66797 -1.5,1.5"
         id="path12285"
         inkscape:connector-curvature="0" />
      <path
         style="fill:#211e1e;fill-opacity:1;fill-rule:nonzero;stroke:none"
         d="m 234.34179,512.05347 c 0,0.82813 0.67188,1.5 1.5,1.5 0.83204,0 1.5,-0.67187 1.5,-1.5 0,-0.82812 -0.66796,-1.5 -1.5,-1.5 -0.82812,0 -1.5,0.67188 -1.5,1.5"
         id="path12287"
         inkscape:connector-curvature="0" />
      <path
         style="fill:#211e1e;fill-opacity:1;fill-rule:nonzero;stroke:none"
         d="m 237.85351,524.36988 c 0,0.82812 0.67188,1.5 1.5,1.5 0.82813,0 1.5,-0.67188 1.5,-1.5 0,-0.82813 -0.67187,-1.5 -1.5,-1.5 -0.82812,0 -1.5,0.67187 -1.5,1.5"
         id="path12289"
         inkscape:connector-curvature="0" />
      <path
         style="fill:#211e1e;fill-opacity:1;fill-rule:nonzero;stroke:none"
         d="m 234.66992,519.27613 c 0,0.82812 0.67187,1.5 1.5,1.5 0.82812,0 1.5,-0.67188 1.5,-1.5 0,-0.83203 -0.67188,-1.5 -1.5,-1.5 -0.82813,0 -1.5,0.66797 -1.5,1.5"
         id="path12291"
         inkscape:connector-curvature="0" />
      <path
         style="fill:#211e1e;fill-opacity:1;fill-rule:nonzero;stroke:none"
         d="m 244.65039,520.54957 c 0,0.82812 0.67187,1.5 1.5,1.5 0.82812,0 1.5,-0.67188 1.5,-1.5 0,-0.83203 -0.67188,-1.5 -1.5,-1.5 -0.82813,0 -1.5,0.66797 -1.5,1.5"
         id="path12293"
         inkscape:connector-curvature="0" />
      <path
         style="fill:#211e1e;fill-opacity:1;fill-rule:nonzero;stroke:none"
         d="m 244.65039,516.51441 c 0,0.82813 0.67187,1.5 1.5,1.5 0.82812,0 1.5,-0.67187 1.5,-1.5 0,-0.82812 -0.67188,-1.5 -1.5,-1.5 -0.82813,0 -1.5,0.67188 -1.5,1.5"
         id="path12295"
         inkscape:connector-curvature="0" />
      <path
         style="fill:#211e1e;fill-opacity:1;fill-rule:nonzero;stroke:none"
         d="m 241.04101,515.66285 c 0,0.83203 0.67188,1.5 1.5,1.5 0.82813,0 1.5,-0.66797 1.5,-1.5 0,-0.82813 -0.67187,-1.5 -1.5,-1.5 -0.82812,0 -1.5,0.67187 -1.5,1.5"
         id="path12297"
         inkscape:connector-curvature="0" />
      <path
         style="fill:#211e1e;fill-opacity:1;fill-rule:nonzero;stroke:none"
         d="m 241.04101,511.31129 c 0,0.82812 0.67188,1.5 1.5,1.5 0.82813,0 1.5,-0.67188 1.5,-1.5 0,-0.82813 -0.67187,-1.5 -1.5,-1.5 -0.82812,0 -1.5,0.67187 -1.5,1.5"
         id="path12299"
         inkscape:connector-curvature="0" />
      <path
         style="fill:#211e1e;fill-opacity:1;fill-rule:nonzero;stroke:none"
         d="m 251.59179,516.65504 c 0,0.82812 0.67188,1.5 1.5,1.5 0.82813,0 1.5,-0.67188 1.5,-1.5 0,-0.82813 -0.67187,-1.5 -1.5,-1.5 -0.82812,0 -1.5,0.67187 -1.5,1.5"
         id="path12301"
         inkscape:connector-curvature="0" />
      <path
         style="fill:#211e1e;fill-opacity:1;fill-rule:nonzero;stroke:none"
         d="m 254.45898,512.51441 c 0,0.82813 0.67188,1.5 1.5,1.5 0.82813,0 1.5,-0.67187 1.5,-1.5 0,-0.82812 -0.67187,-1.5 -1.5,-1.5 -0.82812,0 -1.5,0.67188 -1.5,1.5"
         id="path12303"
         inkscape:connector-curvature="0" />
      <path
         style="fill:#211e1e;fill-opacity:1;fill-rule:nonzero;stroke:none"
         d="m 251.79492,507.51832 c 0,0.82812 0.67187,1.5 1.5,1.5 0.82812,0 1.5,-0.67188 1.5,-1.5 0,-0.82813 -0.67188,-1.5 -1.5,-1.5 -0.82813,0 -1.5,0.67187 -1.5,1.5"
         id="path12305"
         inkscape:connector-curvature="0" />
      <path
         style="fill:#211e1e;fill-opacity:1;fill-rule:nonzero;stroke:none"
         d="m 258.27929,513.15113 c 0,0.82812 0.67188,1.5 1.5,1.5 0.82813,0 1.5,-0.67188 1.5,-1.5 0,-0.82813 -0.67187,-1.5 -1.5,-1.5 -0.82812,0 -1.5,0.67187 -1.5,1.5"
         id="path12307"
         inkscape:connector-curvature="0" />
      <path
         style="fill:#211e1e;fill-opacity:1;fill-rule:nonzero;stroke:none"
         d="m 265.39258,513.15113 c 0,0.82812 0.67187,1.5 1.5,1.5 0.82812,0 1.5,-0.67188 1.5,-1.5 0,-0.82813 -0.67188,-1.5 -1.5,-1.5 -0.82813,0 -1.5,0.67187 -1.5,1.5"
         id="path12309"
         inkscape:connector-curvature="0" />
      <path
         style="fill:#211e1e;fill-opacity:1;fill-rule:nonzero;stroke:none"
         d="m 203.88086,537.0066 c 0,0.82812 0.67187,1.5 1.5,1.5 0.82812,0 1.5,-0.67188 1.5,-1.5 0,-0.83203 -0.67188,-1.5 -1.5,-1.5 -0.82813,0 -1.5,0.66797 -1.5,1.5"
         id="path12311"
         inkscape:connector-curvature="0" />
      <path
         style="fill:#211e1e;fill-opacity:1;fill-rule:nonzero;stroke:none"
         d="m 200.30273,522.2566 c 0,0.82812 0.67188,1.5 1.5,1.5 0.82813,0 1.5,-0.67188 1.5,-1.5 0,-0.82813 -0.67187,-1.5 -1.5,-1.5 -0.82812,0 -1.5,0.67187 -1.5,1.5"
         id="path12313"
         inkscape:connector-curvature="0" />
      <path
         style="fill:#211e1e;fill-opacity:1;fill-rule:nonzero;stroke:none"
         d="m 205.10351,522.2566 c 0,0.82812 0.67188,1.5 1.5,1.5 0.82813,0 1.5,-0.67188 1.5,-1.5 0,-0.82813 -0.67187,-1.5 -1.5,-1.5 -0.82812,0 -1.5,0.67187 -1.5,1.5"
         id="path12315"
         inkscape:connector-curvature="0" />
      <path
         style="fill:#211e1e;fill-opacity:1;fill-rule:nonzero;stroke:none"
         d="m 193.27929,517.5066 c 0,0.82812 0.67188,1.5 1.5,1.5 0.82813,0 1.5,-0.67188 1.5,-1.5 0,-0.82813 -0.67187,-1.5 -1.5,-1.5 -0.82812,0 -1.5,0.67187 -1.5,1.5"
         id="path12317"
         inkscape:connector-curvature="0" />
      <path
         style="fill:#211e1e;fill-opacity:1;fill-rule:nonzero;stroke:none"
         d="m 254.69726,485.05738 c 0,0.82812 0.66797,1.5 1.5,1.5 0.82813,0 1.5,-0.67188 1.5,-1.5 0,-0.82813 -0.67187,-1.5 -1.5,-1.5 -0.83203,0 -1.5,0.67187 -1.5,1.5"
         id="path12319"
         inkscape:connector-curvature="0" />
      <path
         style="fill:#211e1e;fill-opacity:1;fill-rule:nonzero;stroke:none"
         d="m 251.38476,488.79175 c 0,0.82813 0.67188,1.5 1.5,1.5 0.82813,0 1.5,-0.67187 1.5,-1.5 0,-0.82812 -0.67187,-1.5 -1.5,-1.5 -0.82812,0 -1.5,0.67188 -1.5,1.5"
         id="path12321"
         inkscape:connector-curvature="0" />
      <path
         style="fill:#211e1e;fill-opacity:1;fill-rule:nonzero;stroke:none"
         d="m 307.00586,500.6941 c 0,0.82812 0.67187,1.5 1.5,1.5 0.82812,0 1.5,-0.67188 1.5,-1.5 0,-0.82813 -0.67188,-1.5 -1.5,-1.5 -0.82813,0 -1.5,0.67187 -1.5,1.5"
         id="path12323"
         inkscape:connector-curvature="0" />
      <path
         style="fill:#8f8f8f;fill-opacity:1;fill-rule:nonzero;stroke:none"
         d="m 379.16211,431.1355 c 0,0.82813 0.67187,1.5 1.5,1.5 0.82812,0 1.5,-0.67187 1.5,-1.5 0,-0.82812 -0.67188,-1.5 -1.5,-1.5 -0.82813,0 -1.5,0.67188 -1.5,1.5"
         id="path12325"
         inkscape:connector-curvature="0" />
      <path
         style="fill:#8f8f8f;fill-opacity:1;fill-rule:nonzero;stroke:none"
         d="m 361.67383,431.1355 c 0,0.82813 0.67578,1.5 1.5,1.5 0.82812,0 1.5,-0.67187 1.5,-1.5 0,-0.82812 -0.67188,-1.5 -1.5,-1.5 -0.82422,0 -1.5,0.67188 -1.5,1.5"
         id="path12327"
         inkscape:connector-curvature="0" />
      <path
         style="fill:#8f8f8f;fill-opacity:1;fill-rule:nonzero;stroke:none"
         d="m 316.94726,451.93629 c 0,0.82812 0.67188,1.5 1.5,1.5 0.82813,0 1.5,-0.67188 1.5,-1.5 0,-0.82813 -0.67187,-1.5 -1.5,-1.5 -0.82812,0 -1.5,0.67187 -1.5,1.5"
         id="path12329"
         inkscape:connector-curvature="0" />
      <path
         style="fill:#8f8f8f;fill-opacity:1;fill-rule:nonzero;stroke:none"
         d="m 292.29883,457.10816 c 0,0.82813 0.67187,1.5 1.5,1.5 0.82812,0 1.5,-0.67187 1.5,-1.5 0,-0.82812 -0.67188,-1.5 -1.5,-1.5 -0.82813,0 -1.5,0.67188 -1.5,1.5"
         id="path12331"
         inkscape:connector-curvature="0" />
      <path
         style="fill:#8f8f8f;fill-opacity:1;fill-rule:nonzero;stroke:none"
         d="m 282.31445,460.03785 c 0,0.83203 0.67188,1.5 1.5,1.5 0.82813,0 1.5,-0.66797 1.5,-1.5 0,-0.82813 -0.67187,-1.5 -1.5,-1.5 -0.82812,0 -1.5,0.67187 -1.5,1.5"
         id="path12333"
         inkscape:connector-curvature="0" />
      <path
         style="fill:#8f8f8f;fill-opacity:1;fill-rule:nonzero;stroke:none"
         d="m 281.97851,465.11597 c 0,0.82813 0.67188,1.5 1.5,1.5 0.82813,0 1.5,-0.67187 1.5,-1.5 0,-0.82812 -0.67187,-1.5 -1.5,-1.5 -0.82812,0 -1.5,0.67188 -1.5,1.5"
         id="path12335"
         inkscape:connector-curvature="0" />
      <path
         style="fill:#8f8f8f;fill-opacity:1;fill-rule:nonzero;stroke:none"
         d="m 316.02539,446.41285 c 0,0.83203 0.67187,1.5 1.5,1.5 0.82812,0 1.5,-0.66797 1.5,-1.5 0,-0.82813 -0.67188,-1.5 -1.5,-1.5 -0.82813,0 -1.5,0.67187 -1.5,1.5"
         id="path12337"
         inkscape:connector-curvature="0" />
      <path
         style="fill:#8f8f8f;fill-opacity:1;fill-rule:nonzero;stroke:none"
         d="m 286.99414,447.71363 c 0,0.82812 0.67187,1.5 1.5,1.5 0.83203,0 1.5,-0.67188 1.5,-1.5 0,-0.82813 -0.66797,-1.5 -1.5,-1.5 -0.82813,0 -1.5,0.67187 -1.5,1.5"
         id="path12339"
         inkscape:connector-curvature="0" />
      <path
         style="fill:#8f8f8f;fill-opacity:1;fill-rule:nonzero;stroke:none"
         d="m 275.40039,444.76832 c 0,0.82812 0.67187,1.5 1.5,1.5 0.82812,0 1.5,-0.67188 1.5,-1.5 0,-0.82813 -0.67188,-1.5 -1.5,-1.5 -0.82813,0 -1.5,0.67187 -1.5,1.5"
         id="path12341"
         inkscape:connector-curvature="0" />
      <path
         style="fill:#8f8f8f;fill-opacity:1;fill-rule:nonzero;stroke:none"
         d="m 282.52539,452.85816 c 0,0.82813 0.67187,1.5 1.5,1.5 0.82812,0 1.5,-0.67187 1.5,-1.5 0,-0.83203 -0.67188,-1.5 -1.5,-1.5 -0.82813,0 -1.5,0.66797 -1.5,1.5"
         id="path12343"
         inkscape:connector-curvature="0" />
      <path
         style="fill:#8f8f8f;fill-opacity:1;fill-rule:nonzero;stroke:none"
         d="m 276.45117,452.85816 c 0,0.82813 0.67187,1.5 1.5,1.5 0.82812,0 1.5,-0.67187 1.5,-1.5 0,-0.83203 -0.67188,-1.5 -1.5,-1.5 -0.82813,0 -1.5,0.66797 -1.5,1.5"
         id="path12345"
         inkscape:connector-curvature="0" />
      <path
         style="fill:#8f8f8f;fill-opacity:1;fill-rule:nonzero;stroke:none"
         d="m 275.32226,458.03785 c 0,0.83203 0.67188,1.5 1.5,1.5 0.82813,0 1.5,-0.66797 1.5,-1.5 0,-0.82813 -0.67187,-1.5 -1.5,-1.5 -0.82812,0 -1.5,0.67187 -1.5,1.5"
         id="path12347"
         inkscape:connector-curvature="0" />
      <path
         style="fill:#8f8f8f;fill-opacity:1;fill-rule:nonzero;stroke:none"
         d="m 272.21289,460.95582 c 0,0.82812 0.67187,1.5 1.5,1.5 0.82812,0 1.5,-0.67188 1.5,-1.5 0,-0.82813 -0.67188,-1.5 -1.5,-1.5 -0.82813,0 -1.5,0.67187 -1.5,1.5"
         id="path12349"
         inkscape:connector-curvature="0" />
      <path
         style="fill:#8f8f8f;fill-opacity:1;fill-rule:nonzero;stroke:none"
         d="m 275.44336,460.44019 c 0,0.82813 0.67187,1.5 1.5,1.5 0.82812,0 1.5,-0.67187 1.5,-1.5 0,-0.82812 -0.67188,-1.5 -1.5,-1.5 -0.82813,0 -1.5,0.67188 -1.5,1.5"
         id="path12351"
         inkscape:connector-curvature="0" />
      <path
         style="fill:#8f8f8f;fill-opacity:1;fill-rule:nonzero;stroke:none"
         d="m 326.87304,444.39722 c 0,0.82813 0.67188,1.5 1.5,1.5 0.82813,0 1.5,-0.67187 1.5,-1.5 0,-0.82812 -0.67187,-1.5 -1.5,-1.5 -0.82812,0 -1.5,0.67188 -1.5,1.5"
         id="path12353"
         inkscape:connector-curvature="0" />
      <path
         style="fill:#8f8f8f;fill-opacity:1;fill-rule:nonzero;stroke:none"
         d="m 328.68945,442.51441 c 0,0.82813 0.67188,1.5 1.5,1.5 0.82813,0 1.5,-0.67187 1.5,-1.5 0,-0.82812 -0.67187,-1.5 -1.5,-1.5 -0.82812,0 -1.5,0.67188 -1.5,1.5"
         id="path12355"
         inkscape:connector-curvature="0" />
      <path
         style="fill:#8f8f8f;fill-opacity:1;fill-rule:nonzero;stroke:none"
         d="m 333.07226,440.8191 c 0,0.82812 0.67188,1.5 1.5,1.5 0.82813,0 1.5,-0.67188 1.5,-1.5 0,-0.83203 -0.67187,-1.50391 -1.5,-1.50391 -0.82812,0 -1.5,0.67188 -1.5,1.50391"
         id="path12357"
         inkscape:connector-curvature="0" />
      <path
         style="fill:#8f8f8f;fill-opacity:1;fill-rule:nonzero;stroke:none"
         d="m 324.34179,434.8816 c 0,0.82812 0.67188,1.5 1.5,1.5 0.82813,0 1.5,-0.67188 1.5,-1.5 0,-0.82813 -0.67187,-1.5 -1.5,-1.5 -0.82812,0 -1.5,0.67187 -1.5,1.5"
         id="path12359"
         inkscape:connector-curvature="0" />
      <path
         style="fill:#8f8f8f;fill-opacity:1;fill-rule:nonzero;stroke:none"
         d="m 284.73633,408.49488 c 0,0.83203 0.67187,1.5 1.5,1.5 0.82812,0 1.5,-0.66797 1.5,-1.5 0,-0.82813 -0.67188,-1.5 -1.5,-1.5 -0.82813,0 -1.5,0.67187 -1.5,1.5"
         id="path12361"
         inkscape:connector-curvature="0" />
      <path
         style="fill:#8f8f8f;fill-opacity:1;fill-rule:nonzero;stroke:none"
         d="m 392.09961,365.948 c 0,0.82813 0.67187,1.5 1.5,1.5 0.82812,0 1.5,-0.67187 1.5,-1.5 0,-0.82812 -0.67188,-1.5 -1.5,-1.5 -0.82813,0 -1.5,0.67188 -1.5,1.5"
         id="path12363"
         inkscape:connector-curvature="0" />
      <path
         style="fill:#8f8f8f;fill-opacity:1;fill-rule:nonzero;stroke:none"
         d="m 400.93554,359.50269 c 0,0.83203 0.67188,1.5 1.5,1.5 0.82813,0 1.5,-0.66797 1.5,-1.5 0,-0.82812 -0.67187,-1.5 -1.5,-1.5 -0.82812,0 -1.5,0.67188 -1.5,1.5"
         id="path12365"
         inkscape:connector-curvature="0" />
    </g>
    <text
       xml:space="preserve"
       style="font-size:40px;font-style:normal;font-weight:normal;line-height:0%;letter-spacing:0px;word-spacing:0px;fill:#000000;fill-opacity:1;stroke:none;font-family:Sans"
       x="67.680222"
       y="31.09796"
       id="text18574"
       sodipodi:linespacing="0%"><tspan
         sodipodi:role="line"
         x="67.680222"
         y="31.09796"
         id="tspan18578"
         style="font-size:20px;line-height:0%">Y</tspan></text>
    <text
       xml:space="preserve"
       style="font-size:20px;font-style:normal;font-weight:normal;line-height:125%;letter-spacing:0px;word-spacing:0px;fill:#000000;fill-opacity:1;stroke:none;font-family:Sans"
       x="314.15744"
       y="264.44321"
       id="text18580"
       sodipodi:linespacing="125%"><tspan
         sodipodi:role="line"
         id="tspan18582"
         x="314.15744"
         y="264.44321" /></text>
    <text
       xml:space="preserve"
       style="font-size:20px;font-style:normal;font-weight:normal;line-height:125%;letter-spacing:0px;word-spacing:0px;fill:#000000;fill-opacity:1;stroke:none;font-family:Sans"
       x="321.22849"
       y="246.26045"
       id="text18586"
       sodipodi:linespacing="125%"><tspan
         sodipodi:role="line"
         id="tspan18588"
         x="321.22849"
         y="246.26045">x</tspan></text>
  </g>
</svg>
